<?xml version="1.0" encoding="utf-8"?>
<!-- Generator: Adobe Illustrator 19.0.0, SVG Export Plug-In . SVG Version: 6.00 Build 0)  -->
<svg version="1.0" id="Capa_1" xmlns="http://www.w3.org/2000/svg" xmlns:xlink="http://www.w3.org/1999/xlink" x="0px" y="0px"
	 viewBox="0 0 1280 342" style="enable-background:new 0 0 1280 342;" xml:space="preserve">
<style type="text/css">
	.st0{fill:#E6E6E6;}
	.st1{fill:#001689;}
	.st2{fill:#ACA5A3;}
</style>
<g>
	<g>
		<path id="XMLID_2_" class="st0" d="M1280,343H0V9.6c43-3.1,87-5.4,131-6.9V86h73V1c15-0.2,30.7-0.3,46.3-0.3
			C636.1,0.6,992,63.8,1280,170.5V343z"/>
		<path id="XMLID_1_" class="st1" d="M131,86h73V1c-25,0.3-49,0.9-73,1.7V86z"/>
	</g>
	<g>
		<path class="st2" d="M150.8,16.8v30.4L151,47c0.7-1.1,1.4-2,2-3c0.6-0.9,1.4-1.8,2.4-2.7c2.3-2.1,4.9-3.5,7.7-4.3
			c2.8-0.7,5.6-0.9,8.4-0.4c2.8,0.5,5.3,1.6,7.8,3.2c2.4,1.7,4.4,3.9,5.9,6.6c0.6,1.1,1.1,2.2,1.5,3.5c0.5,1.3,0.7,2.6,0.7,3.7v20
			h-1.6V54.6c0-1.3-0.3-2.6-0.8-4c-0.5-1.4-1.1-2.6-1.7-3.7c-1.1-1.9-2.5-3.5-4.1-4.7c-1.6-1.3-3.3-2.2-5.2-2.9
			c-1.9-0.6-3.8-1-5.8-1c-2,0-4,0.3-5.8,0.9c-1.9,0.6-3.6,1.6-5.2,2.9c-1.6,1.3-3,2.9-4,4.8c-0.6,1.1-1.2,2.3-1.7,3.7
			c-0.5,1.4-0.7,2.7-0.7,4v19.3H149V16.8H150.8z"/>
	</g>
</g>
</svg>
